<?xml version="1.0" encoding="UTF-8" standalone="no"?>
<!-- Created with Inkscape (http://www.inkscape.org/) -->

<svg
   xmlns:dc="http://purl.org/dc/elements/1.1/"
   xmlns:cc="http://creativecommons.org/ns#"
   xmlns:rdf="http://www.w3.org/1999/02/22-rdf-syntax-ns#"
   xmlns:svg="http://www.w3.org/2000/svg"
   xmlns="http://www.w3.org/2000/svg"
   xmlns:sodipodi="http://sodipodi.sourceforge.net/DTD/sodipodi-0.dtd"
   xmlns:inkscape="http://www.inkscape.org/namespaces/inkscape"
   width="50"
   height="50"
   viewBox="0 0 50.000001 50.000001"
   id="svg3522"
   version="1.1"
   inkscape:version="0.91 r13725"
   sodipodi:docname="new.svg">
  <defs
     id="defs3524" />
  <sodipodi:namedview
     id="base"
     pagecolor="#ffffff"
     bordercolor="#666666"
     borderopacity="1.0"
     inkscape:pageopacity="0.0"
     inkscape:pageshadow="2"
     inkscape:zoom="1"
     inkscape:cx="30.809653"
     inkscape:cy="11.616754"
     inkscape:document-units="px"
     inkscape:current-layer="layer1"
     showgrid="false"
     units="px"
     inkscape:window-width="1535"
     inkscape:window-height="876"
     inkscape:window-x="65"
     inkscape:window-y="24"
     inkscape:window-maximized="1" />
  <metadata
     id="metadata3527">
    <rdf:RDF>
      <cc:Work
         rdf:about="">
        <dc:format>image/svg+xml</dc:format>
        <dc:type
           rdf:resource="http://purl.org/dc/dcmitype/StillImage" />
        <dc:title></dc:title>
      </cc:Work>
    </rdf:RDF>
  </metadata>
  <g
     inkscape:label="Layer 1"
     inkscape:groupmode="layer"
     id="layer1"
     transform="translate(0,-1002.3622)">
    <path
       sodipodi:type="star"
       style="fill:#969696;fill-opacity:1;stroke:none"
       id="path3530"
       sodipodi:sides="10"
       sodipodi:cx="0"
       sodipodi:cy="1002.3622"
       sodipodi:r1="34.960091"
       sodipodi:r2="67.230942"
       sodipodi:arg1="1.0405806"
       sodipodi:arg2="1.3547398"
       inkscape:flatsided="false"
       inkscape:rounded="0.18"
       inkscape:randomized="0"
       d="m 17.679998,1032.5222 c -5.537149,3.2459 3.002124,34.1319 -3.267062,35.5078 -6.2691854,1.376 -11.4495705,-30.2472 -17.8371203,-30.8758 -6.3875493,-0.6287 -17.6334447,29.3778 -23.5141007,26.8061 -5.880655,-2.5717 8.515963,-31.2004 3.71784,-35.4635 -4.798122,-4.2631 -31.533636,13.4025 -34.779551,7.8654 -3.245916,-5.5372 25.228687,-20.2361 23.852712,-26.5053 -1.375976,-6.2692 -33.389051,-7.6921 -32.760397,-14.07968 0.628655,-6.38755 32.304912,-1.54229 34.876659,-7.42295 2.571747,-5.88065 -22.490983,-25.84866 -18.227883,-30.64678 4.263099,-4.79813 27.041757,17.74061 32.578907,14.49469 5.537149,-3.24591 -3.002124,-34.13187 3.267062,-35.50785 6.2691854,-1.37597 11.4495705,30.2472 17.8371203,30.87586 6.3875493,0.62865 17.6334447,-29.37787 23.5141007,-26.80613 5.880655,2.57175 -8.515963,31.20039 -3.71784,35.46349 4.798122,4.2631 31.533636,-13.40252 34.779551,-7.86537 3.245916,5.53715 -25.228687,20.23609 -23.852712,26.50528 1.375976,6.26914 33.389051,7.69214 32.760397,14.07964 -0.628655,6.3876 -32.304912,1.5423 -34.876659,7.423 -2.571747,5.8806 22.490983,25.8487 18.227883,30.6468 -4.263099,4.7981 -27.041757,-17.7406 -32.578907,-14.4947 z"
       transform="matrix(0.37359815,0,0,0.38045102,25,646.01249)" />
  </g>
</svg>
